<svg xmlns="http://www.w3.org/2000/svg" width="32" height="32" viewBox="0 0 32 32">
  <!-- Pixel heart icon -->
  <rect x="8" y="4" width="4" height="4" fill="#ff1493"/>
  <rect x="12" y="4" width="4" height="4" fill="#ff1493"/>
  <rect x="16" y="4" width="4" height="4" fill="#ff1493"/>
  <rect x="20" y="4" width="4" height="4" fill="#ff1493"/>
  
  <rect x="4" y="8" width="4" height="4" fill="#ff1493"/>
  <rect x="8" y="8" width="4" height="4" fill="#ff69b4"/>
  <rect x="12" y="8" width="4" height="4" fill="#ff69b4"/>
  <rect x="16" y="8" width="4" height="4" fill="#ff69b4"/>
  <rect x="20" y="8" width="4" height="4" fill="#ff69b4"/>
  <rect x="24" y="8" width="4" height="4" fill="#ff1493"/>
  
  <rect x="4" y="12" width="4" height="4" fill="#ff1493"/>
  <rect x="8" y="12" width="4" height="4" fill="#ff69b4"/>
  <rect x="12" y="12" width="4" height="4" fill="#ffffff"/>
  <rect x="16" y="12" width="4" height="4" fill="#ff69b4"/>
  <rect x="20" y="12" width="4" height="4" fill="#ffffff"/>
  <rect x="24" y="12" width="4" height="4" fill="#ff1493"/>
  
  <rect x="8" y="16" width="4" height="4" fill="#ff1493"/>
  <rect x="12" y="16" width="4" height="4" fill="#ff69b4"/>
  <rect x="16" y="16" width="4" height="4" fill="#ff69b4"/>
  <rect x="20" y="16" width="4" height="4" fill="#ff1493"/>
  
  <rect x="12" y="20" width="4" height="4" fill="#ff1493"/>
  <rect x="16" y="20" width="4" height="4" fill="#ff1493"/>
  
  <rect x="14" y="24" width="4" height="4" fill="#ff1493"/>
</svg>